<svg xmlns="http://www.w3.org/2000/svg" width="512" height="512" viewBox="0 0 512 512" role="img" aria-label="Redrob Office"><title>Redrob Office</title><path d="M0 0H399.36A112.64 112.64 0 0 1 512 112.64V399.36A112.64 112.64 0 0 1 399.36 512H112.64A112.64 112.64 0 0 1 0 399.36Z" fill="#FE4D3E"/><path d="M54.4 26.33L54.4 17.75L47.57 15.26L32 9.6L25.16 12.09L9.6 17.75L9.6 26.33L13.37 27.7L25.16 31.99L25.16 23.41L32 20.93L35.4 19.69L38.8 18.45L38.8 32L38.8 45.54L32 43.06L32 43.05L32 43.06L25.16 40.57L25.16 32.01L13.39 36.29L9.6 37.67L9.6 46.25L32 54.4L54.4 46.25L54.4 37.67L50.6 36.29L38.8 32L50.63 27.69L54.4 26.32L54.4 26.33Z" fill="#FFFFFF" transform="translate(-14.628571428571433 -14.628571428571433) scale(8.457142857142857)"/><path d="M212.00 201.24L299.67 178.76L299.67 197.39L212.00 214.44ZM212.00 229.20L269.67 221.96L269.67 238.74L212.00 242.41ZM212.00 258.72L290.44 259.72L290.44 277.77L212.00 271.92ZM212.00 286.68L255.83 292.98L255.83 308.90L212.00 299.89Z" fill="#FFFFFF"/></svg>
